<svg width="16" height="11" viewBox="0 0 16 11" fill="none" xmlns="http://www.w3.org/2000/svg">
<path d="M5.9378 11C5.28915 11 4.62151 10.9529 3.94986 10.8586C2.7669 10.6923 1.5694 10.1378 1.23054 9.97183L0.341797 9.53644L1.30401 9.25292C2.35583 8.94304 2.99566 8.75078 3.7877 8.44972C2.99463 8.10559 2.38341 7.48656 2.08918 6.68633L1.86534 6.07745L2.0489 6.10257C1.87484 5.94538 1.73739 5.78582 1.63085 5.64073C1.25194 5.12505 1.05133 4.49494 1.09401 3.95497L1.13613 3.4235L1.49123 3.54675C1.34143 3.29327 1.23317 3.02257 1.16954 2.73884C1.01448 2.0469 1.14425 1.31178 1.53506 0.668958L1.84439 0.160153L2.2581 0.605383C3.56649 2.01367 5.22369 2.84907 7.19058 3.09363C7.11024 2.59743 7.17043 2.11857 7.36967 1.68934C7.60164 1.18956 8.01432 0.765756 8.56271 0.463672C9.17176 0.128263 9.91036 -0.0342637 10.6424 0.00603471C11.4191 0.048794 12.1243 0.309554 12.6844 0.760629C12.9579 0.696952 13.1594 0.628967 13.4318 0.537091C13.5957 0.481822 13.7815 0.419067 14.0141 0.347289L14.871 0.0827349L14.3122 1.51276C14.349 1.50999 14.387 1.50764 14.4267 1.5061L15.3418 1.46898L14.801 2.13129C14.7699 2.16923 14.762 2.17999 14.7511 2.19486C14.7075 2.25372 14.6532 2.32693 13.9108 3.21514C13.725 3.43755 13.6322 3.72722 13.6495 4.03095C13.7153 5.18514 13.5572 6.22941 13.1795 7.13464C12.8222 7.99106 12.2685 8.72586 11.534 9.31865C10.6252 10.052 9.46622 10.5542 8.08927 10.8109C7.41385 10.9368 6.68853 11 5.9378 11Z" fill="white"/>
</svg>
