<svg width="15" height="14" viewBox="0 0 15 14" fill="none" xmlns="http://www.w3.org/2000/svg">
<path d="M1.22342 8.54572C1.18732 8.75627 1.16211 8.96943 1.16211 9.1875C1.16211 11.8411 3.97659 14 7.36914 14C10.7617 14 13.5215 11.8411 13.5215 9.1875C13.5215 8.96943 13.4963 8.75627 13.4602 8.54572C13.9921 8.24995 14.3418 7.66582 14.3418 7C14.3418 6.03488 13.606 5.25 12.7012 5.25C12.2877 5.25 11.8992 5.41532 11.6013 5.70356C10.5704 4.93691 9.20256 4.44928 7.69022 4.38776L8.47507 1.14035L10.245 1.80093C10.271 2.74212 10.9924 3.5 11.8809 3.5C12.7857 3.5 13.5215 2.71512 13.5215 1.75C13.5215 0.78488 12.7857 0 11.8809 0C11.25 0 10.7076 0.385775 10.4332 0.943929L7.90384 0.000455729L6.84085 4.39596C5.41043 4.49167 4.0661 4.97189 3.08226 5.70356C2.78436 5.41532 2.39589 5.25 1.98242 5.25C1.07762 5.25 0.341797 6.03488 0.341797 7C0.341797 7.66582 0.691498 8.24995 1.22342 8.54572ZM9.83008 7C10.5085 7 11.0605 7.5888 11.0605 8.3125C11.0605 9.0362 10.5085 9.625 9.83008 9.625C9.15161 9.625 8.59961 9.0362 8.59961 8.3125C8.59961 7.5888 9.15161 7 9.83008 7ZM9.65469 10.8649L10.0055 11.6553C9.23567 12.0445 8.32404 12.25 7.36914 12.25C6.41425 12.25 5.44792 12.0445 4.67813 11.6553L5.0289 10.8648C6.3508 11.5322 8.33279 11.5322 9.65469 10.8649ZM4.85352 7C5.53198 7 6.08398 7.5888 6.08398 8.3125C6.08398 9.0362 5.53198 9.625 4.85352 9.625C4.17505 9.625 3.62305 9.0362 3.62305 8.3125C3.62305 7.5888 4.17505 7 4.85352 7Z" fill="white"/>
</svg>
